<?xml version="1.0" encoding="UTF-8"?>
<svg width="129px" height="110px" viewBox="0 0 129 110" version="1.1" xmlns="http://www.w3.org/2000/svg" xmlns:xlink="http://www.w3.org/1999/xlink">
    <!-- Generator: Sketch 43.2 (39069) - http://www.bohemiancoding.com/sketch -->
    <title>plane</title>
    <desc>Created with Sketch.</desc>
    <defs></defs>
    <g id="Page-1" stroke="none" stroke-width="1" fill="none" fill-rule="evenodd">
        <g id="Artboard" transform="translate(-436.000000, -890.000000)" fill="#008D24">
            <g id="Group" transform="translate(436.000000, 890.000000)">
                <path d="M12.9,25.7309942 C5.77552673,25.7309942 0,27.4599262 0,34.565344 C0,41.6707619 12.9,51.4619883 33.54,51.4619883 L96.75,51.4619883 C116.1,51.4619883 129,41.6707619 129,34.565344 C129,27.4599262 123.224473,25.7309942 116.1,25.7309942 L12.9,25.7309942 Z" id="Combined-Shape"></path>
                <path d="M51.694557,25.7309942 L51.6,25.7309942 L57.405,94.7231627 C57.405,94.7231627 60.9525,110 64.5,110 C68.0475,110 71.595,94.7231627 71.595,94.7231627 L77.4,25.7309942 L77.305443,25.7309942 C77.3678687,25.007464 77.4,24.2508794 77.4,23.4606123 C77.4,12.8654971 71.6244733,0 64.5,0 C57.3755267,0 51.6,12.8654971 51.6,23.4606123 C51.6,24.2508794 51.6321313,25.007464 51.694557,25.7309942 Z" id="Combined-Shape"></path>
                <path d="M45.15,90.0584795 C41.5877634,90.0584795 38.7,92.9385192 38.7,96.4912281 C38.7,100.043937 41.5877634,102.923977 45.15,102.923977 L83.85,102.923977 C87.4122366,102.923977 90.3,100.043937 90.3,96.4912281 C90.3,92.9385192 87.4122366,90.0584795 83.85,90.0584795 L45.15,90.0584795 Z" id="Combined-Shape"></path>
            </g>
        </g>
    </g>
</svg>